<svg id="visual" viewBox="0 0 1440 1024" width="1440" height="1024" xmlns="http://www.w3.org/2000/svg" xmlns:xlink="http://www.w3.org/1999/xlink" version="1.1"><path d="M0 83L24 86.3C48 89.7 96 96.3 144 99.7C192 103 240 103 288 106.5C336 110 384 117 432 118.8C480 120.7 528 117.3 576 115.7C624 114 672 114 720 110.5C768 107 816 100 864 96.5C912 93 960 93 1008 94.7C1056 96.3 1104 99.7 1152 104.8C1200 110 1248 117 1296 120.5C1344 124 1392 124 1416 124L1440 124L1440 0L1416 0C1392 0 1344 0 1296 0C1248 0 1200 0 1152 0C1104 0 1056 0 1008 0C960 0 912 0 864 0C816 0 768 0 720 0C672 0 624 0 576 0C528 0 480 0 432 0C384 0 336 0 288 0C240 0 192 0 144 0C96 0 48 0 24 0L0 0Z" fill="#1c8adb"></path><path d="M0 411L24 397.3C48 383.7 96 356.3 144 344.3C192 332.3 240 335.7 288 342.5C336 349.3 384 359.7 432 359.7C480 359.7 528 349.3 576 351C624 352.7 672 366.3 720 373.2C768 380 816 380 864 386.8C912 393.7 960 407.3 1008 426.2C1056 445 1104 469 1152 467.3C1200 465.7 1248 438.3 1296 411C1344 383.7 1392 356.3 1416 342.7L1440 329L1440 122L1416 122C1392 122 1344 122 1296 118.5C1248 115 1200 108 1152 102.8C1104 97.7 1056 94.3 1008 92.7C960 91 912 91 864 94.5C816 98 768 105 720 108.5C672 112 624 112 576 113.7C528 115.3 480 118.7 432 116.8C384 115 336 108 288 104.5C240 101 192 101 144 97.7C96 94.3 48 87.7 24 84.3L0 81Z" fill="#1a81cd"></path><path d="M0 503L24 496.2C48 489.3 96 475.7 144 470.5C192 465.3 240 468.7 288 473.8C336 479 384 486 432 475.8C480 465.7 528 438.3 576 438.3C624 438.3 672 465.7 720 481C768 496.3 816 499.7 864 509.8C912 520 960 537 1008 550.7C1056 564.3 1104 574.7 1152 569.5C1200 564.3 1248 543.7 1296 523.2C1344 502.7 1392 482.3 1416 472.2L1440 462L1440 327L1416 340.7C1392 354.3 1344 381.7 1296 409C1248 436.3 1200 463.7 1152 465.3C1104 467 1056 443 1008 424.2C960 405.3 912 391.7 864 384.8C816 378 768 378 720 371.2C672 364.3 624 350.7 576 349C528 347.3 480 357.7 432 357.7C384 357.7 336 347.3 288 340.5C240 333.7 192 330.3 144 342.3C96 354.3 48 381.7 24 395.3L0 409Z" fill="#1878bf"></path><path d="M0 687L24 671.7C48 656.3 96 625.7 144 622.3C192 619 240 643 288 653.2C336 663.3 384 659.7 432 644.2C480 628.7 528 601.3 576 606.5C624 611.7 672 649.3 720 664.8C768 680.3 816 673.7 864 672C912 670.3 960 673.7 1008 683.8C1056 694 1104 711 1152 714.3C1200 717.7 1248 707.3 1296 688.5C1344 669.7 1392 642.3 1416 628.7L1440 615L1440 460L1416 470.2C1392 480.3 1344 500.7 1296 521.2C1248 541.7 1200 562.3 1152 567.5C1104 572.7 1056 562.3 1008 548.7C960 535 912 518 864 507.8C816 497.7 768 494.3 720 479C672 463.7 624 436.3 576 436.3C528 436.3 480 463.7 432 473.8C384 484 336 477 288 471.8C240 466.7 192 463.3 144 468.5C96 473.7 48 487.3 24 494.2L0 501Z" fill="#1670b1"></path><path d="M0 861L24 869.5C48 878 96 895 144 900.2C192 905.3 240 898.7 288 891.8C336 885 384 878 432 872.8C480 867.7 528 864.3 576 864.3C624 864.3 672 867.7 720 879.7C768 891.7 816 912.3 864 914.2C912 916 960 899 1008 899C1056 899 1104 916 1152 917.7C1200 919.3 1248 905.7 1296 905.7C1344 905.7 1392 919.3 1416 926.2L1440 933L1440 613L1416 626.7C1392 640.3 1344 667.7 1296 686.5C1248 705.3 1200 715.7 1152 712.3C1104 709 1056 692 1008 681.8C960 671.7 912 668.3 864 670C816 671.7 768 678.3 720 662.8C672 647.3 624 609.7 576 604.5C528 599.3 480 626.7 432 642.2C384 657.7 336 661.3 288 651.2C240 641 192 617 144 620.3C96 623.7 48 654.3 24 669.7L0 685Z" fill="#1467a3"></path><path d="M0 1025L24 1025C48 1025 96 1025 144 1025C192 1025 240 1025 288 1025C336 1025 384 1025 432 1025C480 1025 528 1025 576 1025C624 1025 672 1025 720 1025C768 1025 816 1025 864 1025C912 1025 960 1025 1008 1025C1056 1025 1104 1025 1152 1025C1200 1025 1248 1025 1296 1025C1344 1025 1392 1025 1416 1025L1440 1025L1440 931L1416 924.2C1392 917.3 1344 903.7 1296 903.7C1248 903.7 1200 917.3 1152 915.7C1104 914 1056 897 1008 897C960 897 912 914 864 912.2C816 910.3 768 889.7 720 877.7C672 865.7 624 862.3 576 862.3C528 862.3 480 865.7 432 870.8C384 876 336 883 288 889.8C240 896.7 192 903.3 144 898.2C96 893 48 876 24 867.5L0 859Z" fill="#135f96"></path></svg>