<svg width="1440" height="1024" viewBox="0 0 1440 1024" fill="none" xmlns="http://www.w3.org/2000/svg">
<g clip-path="url(#clip0_26_2)">
<path d="M1440 0H0V1024H1440V0Z" fill="#1C8ADB"/>
<path d="M0 207.13L48 194.413C96 181.821 192 156.387 288 151.649C384 146.912 480 162.621 576 183.192C672 203.764 768 229.197 864 247.899C960 266.6 1056 278.569 1152 247.026C1248 215.483 1344 140.179 1392 102.652L1440 65V1025H1392C1344 1025 1248 1025 1152 1025C1056 1025 960 1025 864 1025C768 1025 672 1025 576 1025C480 1025 384 1025 288 1025C192 1025 96 1025 48 1025H0V207.13Z" fill="#1772B5"/>
<path d="M0 388L48 397C96 406 192 424 288 442.8C384 461.7 480 481.3 576 482.5C672 483.7 768 466.3 864 453.5C960 440.7 1056 432.3 1152 440.2C1248 448 1344 472 1392 484L1440 496V1025H1392C1344 1025 1248 1025 1152 1025C1056 1025 960 1025 864 1025C768 1025 672 1025 576 1025C480 1025 384 1025 288 1025C192 1025 96 1025 48 1025H0V388Z" fill="#166DAD"/>
<path d="M0 600L48 592.8C96 585.7 192 571.3 288 573.2C384 575 480 593 576 607.7C672 622.3 768 633.7 864 632.8C960 632 1056 619 1152 598.5C1248 578 1344 550 1392 536L1440 522V1025H1392C1344 1025 1248 1025 1152 1025C1056 1025 960 1025 864 1025C768 1025 672 1025 576 1025C480 1025 384 1025 288 1025C192 1025 96 1025 48 1025H0V600Z" fill="#1568A5"/>
<path d="M0 741L48 734.3C96 727.7 192 714.3 288 712.5C384 710.7 480 720.3 576 716.3C672 712.3 768 694.7 864 684C960 673.3 1056 669.7 1152 674.3C1248 679 1344 692 1392 698.5L1440 705V1025H1392C1344 1025 1248 1025 1152 1025C1056 1025 960 1025 864 1025C768 1025 672 1025 576 1025C480 1025 384 1025 288 1025C192 1025 96 1025 48 1025H0V741Z" fill="#14639D"/>
<path d="M0 832H48C96 832 192 832 288 829.8C384 827.7 480 823.3 576 823C672 822.7 768 826.3 864 836.7C960 847 1056 864 1152 860.2C1248 856.3 1344 831.7 1392 819.3L1440 807V1025H1392C1344 1025 1248 1025 1152 1025C1056 1025 960 1025 864 1025C768 1025 672 1025 576 1025C480 1025 384 1025 288 1025C192 1025 96 1025 48 1025H0V832Z" fill="#135F96"/>
</g>
<defs>
<clipPath id="clip0_26_2">
<rect width="1440" height="1024" fill="white"/>
</clipPath>
</defs>
</svg>
